<?xml version="1.0" encoding="utf-8"?><svg xmlns="http://www.w3.org/2000/svg" xmlns:xlink="http://www.w3.org/1999/xlink"  preserveAspectRatio="xMinYMin meet" viewBox="0 0 98 106" width="98" height="106"><svg class="d2-128657498 d2-svg" width="98" height="106" viewBox="-25 -25 98 106"><rect x="-25" y="-25" width="98" height="106" rx="0" fill="#FFFFFF" class=" fill-N7" stroke-width="0" /><style type="text/css"><![CDATA[]]></style><style type="text/css"><![CDATA[.shape {
  shape-rendering: geometricPrecision;
  stroke-linejoin: round;
}
.connection {
  stroke-linecap: round;
  stroke-linejoin: round;
}
.blend {
  mix-blend-mode: multiply;
  opacity: 0.5;
}

		.d2-128657498 .fill-N7{fill:#FFFFFF;}
		.d2-128657498 .stroke-B2{stroke:#0D32B2;}
		.d2-128657498 .color-N1{color:#0A0F25;}.appendix text.text{fill:#0A0F25}.md{--color-fg-default:#0A0F25;--color-fg-muted:#676C7E;--color-fg-subtle:#9499AB;--color-canvas-default:#FFFFFF;--color-canvas-subtle:#EEF1F8;--color-border-default:#0D32B2;--color-border-muted:#0D32B2;--color-neutral-muted:#EEF1F8;--color-accent-fg:#0D32B2;--color-accent-emphasis:#0D32B2;--color-attention-subtle:#676C7E;--color-danger-fg:red;}.light-code{display: block}.dark-code{display: none}]]></style><g class="bWF0aA=="><g class="shape" ></g><g transform="translate(0 0)" color="#0A0F25" class=" color-N1"><svg style="vertical-align: -1.56ex;" xmlns="http://www.w3.org/2000/svg" width="5.938ex" height="6.974ex" role="img" focusable="false" viewBox="0 -2392.9 2624.5 3082.6"><g stroke="currentColor" fill="currentColor" stroke-width="0" transform="scale(1,-1)"><g data-mml-node="math"><g data-mml-node="mstyle" transform="scale(2.49)"><g data-mml-node="menclose"><g transform="translate(267, 0)"><g data-mml-node="TeXAtom" data-mjx-texclass="ORD"><g data-mml-node="mstyle"><g data-mml-node="TeXAtom" data-mjx-texclass="ORD"><g data-mml-node="mi"><path data-c="1D451" d="M366 683Q367 683 438 688T511 694Q523 694 523 686Q523 679 450 384T375 83T374 68Q374 26 402 26Q411 27 422 35Q443 55 463 131Q469 151 473 152Q475 153 483 153H487H491Q506 153 506 145Q506 140 503 129Q490 79 473 48T445 8T417 -8Q409 -10 393 -10Q359 -10 336 5T306 36L300 51Q299 52 296 50Q294 48 292 46Q233 -10 172 -10Q117 -10 75 30T33 157Q33 205 53 255T101 341Q148 398 195 420T280 442Q336 442 364 400Q369 394 369 396Q370 400 396 505T424 616Q424 629 417 632T378 637H357Q351 643 351 645T353 664Q358 683 366 683ZM352 326Q329 405 277 405Q242 405 210 374T160 293Q131 214 119 129Q119 126 119 118T118 106Q118 61 136 44T179 26Q233 26 290 98L298 109L352 326Z"></path></g></g></g></g></g><rect x="33.5" y="-243.5" width="987" height="1171" fill="none" stroke-width="67"></rect></g></g></g></g></svg></g></g><mask id="d2-128657498" maskUnits="userSpaceOnUse" x="-25" y="-25" width="98" height="106">
<rect x="-25" y="-25" width="98" height="106" fill="white"></rect>

</mask></svg></svg>
