<?xml version="1.0" encoding="utf-8"?><svg xmlns="http://www.w3.org/2000/svg" xmlns:xlink="http://www.w3.org/1999/xlink"  preserveAspectRatio="xMinYMin meet" viewBox="0 0 121 93" width="121" height="93"><svg class="d2-3436251835 d2-svg" width="121" height="93" viewBox="-25 -25 121 93"><rect x="-25" y="-25" width="121" height="93" rx="0" fill="#FFFFFF" class=" fill-N7" stroke-width="0" /><style type="text/css"><![CDATA[]]></style><style type="text/css"><![CDATA[.shape {
  shape-rendering: geometricPrecision;
  stroke-linejoin: round;
}
.connection {
  stroke-linecap: round;
  stroke-linejoin: round;
}
.blend {
  mix-blend-mode: multiply;
  opacity: 0.5;
}

		.d2-3436251835 .fill-N7{fill:#FFFFFF;}
		.d2-3436251835 .stroke-B2{stroke:#0D32B2;}
		.d2-3436251835 .color-N1{color:#0A0F25;}.appendix text.text{fill:#0A0F25}.md{--color-fg-default:#0A0F25;--color-fg-muted:#676C7E;--color-fg-subtle:#9499AB;--color-canvas-default:#FFFFFF;--color-canvas-subtle:#EEF1F8;--color-border-default:#0D32B2;--color-border-muted:#0D32B2;--color-neutral-muted:#EEF1F8;--color-accent-fg:#0D32B2;--color-accent-emphasis:#0D32B2;--color-attention-subtle:#676C7E;--color-danger-fg:red;}.light-code{display: block}.dark-code{display: none}]]></style><g class="Zm9ybXVsYQ=="><g class="shape" ></g><g transform="translate(0 0)" color="#0A0F25" class=" color-N1"><svg style="vertical-align: -1.127ex;" xmlns="http://www.w3.org/2000/svg" width="8.777ex" height="5.352ex" role="img" focusable="false" viewBox="0 -1867.5 3879.4 2365.5"><g stroke="currentColor" fill="currentColor" stroke-width="0" transform="scale(1,-1)"><g data-mml-node="math"><g data-mml-node="TeXAtom" data-mjx-texclass="ORD"><g data-mml-node="mstyle" transform="scale(2.49)"><g data-mml-node="mi"><path data-c="1D44E" d="M33 157Q33 258 109 349T280 441Q331 441 370 392Q386 422 416 422Q429 422 439 414T449 394Q449 381 412 234T374 68Q374 43 381 35T402 26Q411 27 422 35Q443 55 463 131Q469 151 473 152Q475 153 483 153H487Q506 153 506 144Q506 138 501 117T481 63T449 13Q436 0 417 -8Q409 -10 393 -10Q359 -10 336 5T306 36L300 51Q299 52 296 50Q294 48 292 46Q233 -10 172 -10Q117 -10 75 30T33 157ZM351 328Q351 334 346 350T323 385T277 405Q242 405 210 374T160 293Q131 214 119 129Q119 126 119 118T118 106Q118 61 136 44T179 26Q217 26 254 59T298 110Q300 114 325 217T351 328Z"></path></g><g data-mml-node="mi" transform="translate(529,0)"><text data-variant="italic" transform="scale(1,-1)" font-size="884px" font-family="serif" font-style="italic">Ↄ</text></g><g data-mml-node="mi" transform="translate(1129,0)"><path data-c="1D44F" d="M73 647Q73 657 77 670T89 683Q90 683 161 688T234 694Q246 694 246 685T212 542Q204 508 195 472T180 418L176 399Q176 396 182 402Q231 442 283 442Q345 442 383 396T422 280Q422 169 343 79T173 -11Q123 -11 82 27T40 150V159Q40 180 48 217T97 414Q147 611 147 623T109 637Q104 637 101 637H96Q86 637 83 637T76 640T73 647ZM336 325V331Q336 405 275 405Q258 405 240 397T207 376T181 352T163 330L157 322L136 236Q114 150 114 114Q114 66 138 42Q154 26 178 26Q211 26 245 58Q270 81 285 114T318 219Q336 291 336 325Z"></path></g></g></g></g></g></svg></g></g><mask id="d2-3436251835" maskUnits="userSpaceOnUse" x="-25" y="-25" width="121" height="93">
<rect x="-25" y="-25" width="121" height="93" fill="white"></rect>

</mask></svg></svg>
